<svg width="72" height="16" viewBox="0 0 72 16" fill="none" xmlns="http://www.w3.org/2000/svg">
<g clip-path="url(#clip0_5_792)">
<path d="M0 5.05946H1.85625V6.52973H1.94063C2.23594 6.01081 2.68594 5.57838 3.29063 5.23243C3.90938 4.88649 4.54922 4.71351 5.21016 4.71351C6.47578 4.71351 7.4461 5.08829 8.1211 5.83784C8.81016 6.57297 9.15469 7.62523 9.15469 8.99459V15.6541H7.21407V9.12432C7.17188 7.39459 6.3211 6.52973 4.66172 6.52973C3.88828 6.52973 3.24141 6.85405 2.7211 7.5027C2.20078 8.13694 1.94063 8.9009 1.94063 9.79459V15.6541H0V5.05946ZM13.5209 1.40541C13.5209 1.79459 13.3873 2.12613 13.1201 2.4C12.853 2.67387 12.5295 2.81081 12.1498 2.81081C11.7701 2.81081 11.4467 2.67387 11.1795 2.4C10.9123 2.12613 10.7787 1.79459 10.7787 1.40541C10.7787 1.01622 10.9123 0.684685 11.1795 0.410811C11.4467 0.136937 11.7701 0 12.1498 0C12.5295 0 12.853 0.136937 13.1201 0.410811C13.3873 0.684685 13.5209 1.01622 13.5209 1.40541ZM13.1201 5.05946V15.6541H11.1795V5.05946H13.1201ZM20.2441 15.6541H18.3035L14.1269 5.05946H16.2363L19.2738 13.2757H19.316L22.3957 5.05946H24.4628L20.2441 15.6541ZM26.5148 12.4108C26.5148 12.9297 26.7258 13.3622 27.1477 13.7081C27.5836 14.0541 28.0898 14.227 28.6664 14.227C29.482 14.227 30.2063 13.9171 30.8391 13.2973C31.4859 12.6775 31.8094 11.9495 31.8094 11.1135C31.2047 10.6234 30.3609 10.3784 29.2781 10.3784C28.4906 10.3784 27.8297 10.573 27.2953 10.9622C26.775 11.3514 26.5148 11.8342 26.5148 12.4108ZM29.025 4.71351C30.4594 4.71351 31.5914 5.10991 32.4211 5.9027C33.2508 6.68108 33.6656 7.75495 33.6656 9.12432V15.6541H31.8094V14.1838H31.725C30.9234 15.3946 29.8547 16 28.5188 16C27.3797 16 26.4234 15.6541 25.65 14.9622C24.8906 14.2703 24.5109 13.4054 24.5109 12.3676C24.5109 11.2721 24.9117 10.4 25.7133 9.75135C26.5289 9.1027 27.6117 8.77838 28.9617 8.77838C30.1148 8.77838 31.0641 8.99459 31.8094 9.42703V8.97297C31.8094 8.28108 31.5422 7.6973 31.0078 7.22162C30.4734 6.73153 29.8477 6.48649 29.1305 6.48649C28.0477 6.48649 27.1898 6.95496 26.557 7.89189L24.8484 6.78919C25.7906 5.40541 27.1828 4.71351 29.025 4.71351ZM36.7428 12.4108C36.7428 12.9297 36.9537 13.3622 37.3756 13.7081C37.8115 14.0541 38.3178 14.227 38.8943 14.227C39.71 14.227 40.4342 13.9171 41.067 13.2973C41.7139 12.6775 42.0373 11.9495 42.0373 11.1135C41.4326 10.6234 40.5889 10.3784 39.5061 10.3784C38.7186 10.3784 38.0576 10.573 37.5233 10.9622C37.0029 11.3514 36.7428 11.8342 36.7428 12.4108ZM39.2529 4.71351C40.6873 4.71351 41.8194 5.10991 42.649 5.9027C43.4787 6.68108 43.8936 7.75495 43.8936 9.12432V15.6541H42.0373V14.1838H41.9529C41.1514 15.3946 40.0826 16 38.7467 16C37.6076 16 36.6514 15.6541 35.8779 14.9622C35.1186 14.2703 34.7389 13.4054 34.7389 12.3676C34.7389 11.2721 35.1397 10.4 35.9412 9.75135C36.7568 9.1027 37.8397 8.77838 39.1897 8.77838C40.3428 8.77838 41.292 8.99459 42.0373 9.42703V8.97297C42.0373 8.28108 41.7701 7.6973 41.2358 7.22162C40.7014 6.73153 40.0756 6.48649 39.3584 6.48649C38.2756 6.48649 37.4178 6.95496 36.785 7.89189L35.0764 6.78919C36.0186 5.40541 37.4108 4.71351 39.2529 4.71351ZM47.6011 15.6541H45.6605V5.05946H47.5168V6.78919H47.6011C47.798 6.22703 48.1988 5.75135 48.8035 5.36216C49.4222 4.95856 50.0269 4.75676 50.6175 4.75676C51.18 4.75676 51.6582 4.84324 52.0519 5.01622L51.4613 6.94054C51.2222 6.83964 50.8425 6.78919 50.3222 6.78919C49.591 6.78919 48.9511 7.09189 48.4027 7.6973C47.8683 8.3027 47.6011 9.00901 47.6011 9.81622V15.6541ZM53.903 12.4108C53.903 12.9297 54.1139 13.3622 54.5358 13.7081C54.9717 14.0541 55.478 14.227 56.0545 14.227C56.8702 14.227 57.5944 13.9171 58.2272 13.2973C58.8741 12.6775 59.1975 11.9495 59.1975 11.1135C58.5928 10.6234 57.7491 10.3784 56.6663 10.3784C55.8788 10.3784 55.2178 10.573 54.6834 10.9622C54.1631 11.3514 53.903 11.8342 53.903 12.4108ZM56.4131 4.71351C57.8475 4.71351 58.9795 5.10991 59.8092 5.9027C60.6389 6.68108 61.0538 7.75495 61.0538 9.12432V15.6541H59.1975V14.1838H59.1131C58.3116 15.3946 57.2428 16 55.9069 16C54.7678 16 53.8116 15.6541 53.0381 14.9622C52.2788 14.2703 51.8991 13.4054 51.8991 12.3676C51.8991 11.2721 52.2998 10.4 53.1014 9.75135C53.917 9.1027 54.9998 8.77838 56.3498 8.77838C57.503 8.77838 58.4522 8.99459 59.1975 9.42703V8.97297C59.1975 8.28108 58.9303 7.6973 58.3959 7.22162C57.8616 6.73153 57.2358 6.48649 56.5186 6.48649C55.4358 6.48649 54.578 6.95496 53.9452 7.89189L52.2366 6.78919C53.1788 5.40541 54.5709 4.71351 56.4131 4.71351ZM62.8207 5.05946H64.677V6.52973H64.7613C65.0566 6.01081 65.5066 5.57838 66.1113 5.23243C66.7301 4.88649 67.3699 4.71351 68.0309 4.71351C69.2965 4.71351 70.2668 5.08829 70.9418 5.83784C71.6309 6.57297 71.9754 7.62523 71.9754 8.99459V15.6541H70.0348V9.12432C69.9926 7.39459 69.1418 6.52973 67.4824 6.52973C66.709 6.52973 66.0621 6.85405 65.5418 7.5027C65.0215 8.13694 64.7613 8.9009 64.7613 9.79459V15.6541H62.8207V5.05946Z" fill="#0A2C2C"/>
</g>
<defs>
<clipPath id="clip0_5_792">
<rect width="72" height="16" fill="white"/>
</clipPath>
</defs>
</svg>
