<svg width="512" height="111" viewBox="0 0 512 111" fill="none" xmlns="http://www.w3.org/2000/svg">
<path d="M-2.41548e-05 35.1H13.2V45.3H13.8C15.9 41.7 19.1 38.7 23.4 36.3C27.8 33.9 32.35 32.7 37.05 32.7C46.05 32.7 52.95 35.3 57.75 40.5C62.65 45.6 65.1 52.9 65.1 62.4V108.6H51.3V63.3C51 51.3 44.95 45.3 33.15 45.3C27.65 45.3 23.05 47.55 19.35 52.05C15.65 56.45 13.8 61.75 13.8 67.95V108.6H-2.41548e-05V35.1ZM96.1488 9.75C96.1488 12.45 95.1988 14.75 93.2988 16.65C91.3988 18.55 89.0988 19.5 86.3988 19.5C83.6988 19.5 81.3988 18.55 79.4988 16.65C77.5988 14.75 76.6488 12.45 76.6488 9.75C76.6488 7.05 77.5988 4.75 79.4988 2.85C81.3988 0.95 83.6988 5.96046e-07 86.3988 5.96046e-07C89.0988 5.96046e-07 91.3988 0.95 93.2988 2.85C95.1988 4.75 96.1488 7.05 96.1488 9.75ZM93.2988 35.1V108.6H79.4988V35.1H93.2988ZM143.958 108.6H130.158L100.458 35.1H115.458L137.058 92.1H137.358L159.258 35.1H173.958L143.958 108.6ZM188.55 86.1C188.55 89.7 190.05 92.7 193.05 95.1C196.15 97.5 199.75 98.7 203.85 98.7C209.65 98.7 214.8 96.55 219.3 92.25C223.9 87.95 226.2 82.9 226.2 77.1C221.9 73.7 215.9 72 208.2 72C202.6 72 197.9 73.35 194.1 76.05C190.4 78.75 188.55 82.1 188.55 86.1ZM206.4 32.7C216.6 32.7 224.65 35.45 230.55 40.95C236.45 46.35 239.4 53.8 239.4 63.3V108.6H226.2V98.4H225.6C219.9 106.8 212.3 111 202.8 111C194.7 111 187.9 108.6 182.4 103.8C177 99 174.3 93 174.3 85.8C174.3 78.2 177.15 72.15 182.85 67.65C188.65 63.15 196.35 60.9 205.95 60.9C214.15 60.9 220.9 62.4 226.2 65.4V62.25C226.2 57.45 224.3 53.4 220.5 50.1C216.7 46.7 212.25 45 207.15 45C199.45 45 193.35 48.25 188.85 54.75L176.7 47.1C183.4 37.5 193.3 32.7 206.4 32.7ZM261.282 86.1C261.282 89.7 262.782 92.7 265.782 95.1C268.882 97.5 272.482 98.7 276.582 98.7C282.382 98.7 287.532 96.55 292.032 92.25C296.632 87.95 298.932 82.9 298.932 77.1C294.632 73.7 288.632 72 280.932 72C275.332 72 270.632 73.35 266.832 76.05C263.132 78.75 261.282 82.1 261.282 86.1ZM279.132 32.7C289.332 32.7 297.382 35.45 303.282 40.95C309.182 46.35 312.132 53.8 312.132 63.3V108.6H298.932V98.4H298.332C292.632 106.8 285.032 111 275.532 111C267.432 111 260.632 108.6 255.132 103.8C249.732 99 247.032 93 247.032 85.8C247.032 78.2 249.882 72.15 255.582 67.65C261.382 63.15 269.082 60.9 278.682 60.9C286.882 60.9 293.632 62.4 298.932 65.4V62.25C298.932 57.45 297.032 53.4 293.232 50.1C289.432 46.7 284.982 45 279.882 45C272.182 45 266.082 48.25 261.582 54.75L249.432 47.1C256.132 37.5 266.032 32.7 279.132 32.7ZM338.497 108.6H324.697V35.1H337.897V47.1H338.497C339.897 43.2 342.747 39.9 347.047 37.2C351.447 34.4 355.747 33 359.947 33C363.947 33 367.347 33.6 370.147 34.8L365.947 48.15C364.247 47.45 361.547 47.1 357.847 47.1C352.647 47.1 348.097 49.2 344.197 53.4C340.397 57.6 338.497 62.5 338.497 68.1V108.6ZM383.31 86.1C383.31 89.7 384.81 92.7 387.81 95.1C390.91 97.5 394.51 98.7 398.61 98.7C404.41 98.7 409.56 96.55 414.06 92.25C418.66 87.95 420.96 82.9 420.96 77.1C416.66 73.7 410.66 72 402.96 72C397.36 72 392.66 73.35 388.86 76.05C385.16 78.75 383.31 82.1 383.31 86.1ZM401.16 32.7C411.36 32.7 419.41 35.45 425.31 40.95C431.21 46.35 434.16 53.8 434.16 63.3V108.6H420.96V98.4H420.36C414.66 106.8 407.06 111 397.56 111C389.46 111 382.66 108.6 377.16 103.8C371.76 99 369.06 93 369.06 85.8C369.06 78.2 371.91 72.15 377.61 67.65C383.41 63.15 391.11 60.9 400.71 60.9C408.91 60.9 415.66 62.4 420.96 65.4V62.25C420.96 57.45 419.06 53.4 415.26 50.1C411.46 46.7 407.01 45 401.91 45C394.21 45 388.11 48.25 383.61 54.75L371.46 47.1C378.16 37.5 388.06 32.7 401.16 32.7ZM446.725 35.1H459.925V45.3H460.525C462.625 41.7 465.825 38.7 470.125 36.3C474.525 33.9 479.075 32.7 483.775 32.7C492.775 32.7 499.675 35.3 504.475 40.5C509.375 45.6 511.825 52.9 511.825 62.4V108.6H498.025V63.3C497.725 51.3 491.675 45.3 479.875 45.3C474.375 45.3 469.775 47.55 466.075 52.05C462.375 56.45 460.525 61.75 460.525 67.95V108.6H446.725V35.1Z" fill="white"/>
</svg>
